<svg width="200" height="40" viewBox="0 0 200 40" fill="none" xmlns="http://www.w3.org/2000/svg">
<path d="M33.152 4.68C32.832 5.512 32.4 6.728 31.856 8.328C31.312 9.896 30.8 11.944 30.32 14.472H29.36C29.456 14.024 29.52 13.56 29.552 13.08C29.616 12.6 29.648 12.184 29.648 11.832C29.648 10.52 29.36 9.416 28.784 8.52C28.24 7.592 27.456 6.888 26.432 6.408C25.408 5.896 24.176 5.64 22.736 5.64C21.36 5.64 20.144 5.992 19.088 6.696C18.064 7.4 17.552 8.6 17.552 10.296C17.552 11.384 17.808 12.456 18.32 13.512C18.832 14.536 19.488 15.56 20.288 16.584C21.12 17.608 21.984 18.648 22.88 19.704C23.808 20.728 24.672 21.784 25.472 22.872C26.304 23.928 26.976 25.048 27.488 26.232C28 27.416 28.256 28.664 28.256 29.976C28.256 31.736 27.792 33.24 26.864 34.488C25.936 35.704 24.752 36.696 23.312 37.464C21.872 38.232 20.352 38.792 18.752 39.144C17.152 39.496 15.664 39.672 14.288 39.672C12.624 39.672 11.264 39.592 10.208 39.432C9.152 39.272 8.24 39.032 7.472 38.712C6.704 38.36 5.872 37.944 4.976 37.464C4.656 37.272 4.352 37.112 4.064 36.984C3.776 36.824 3.536 36.744 3.344 36.744C2.928 36.744 2.592 36.92 2.336 37.272C2.08 37.624 1.728 38.312 1.28 39.336H0.32C0.608 38.632 0.912 37.816 1.232 36.888C1.552 35.96 1.904 34.776 2.288 33.336C2.672 31.864 3.104 30.024 3.584 27.816H4.544C4.384 28.296 4.256 28.904 4.16 29.64C4.096 30.344 4.08 30.984 4.112 31.56C4.208 33.896 4.944 35.656 6.32 36.84C7.696 37.992 9.568 38.568 11.936 38.568C14.176 38.568 15.664 38.152 16.4 37.32C17.168 36.456 17.552 35.4 17.552 34.152C17.552 32.808 17.312 31.56 16.832 30.408C16.384 29.224 15.792 28.12 15.056 27.096C14.32 26.04 13.536 25.016 12.704 24.024C11.904 23 11.136 21.976 10.4 20.952C9.664 19.928 9.056 18.856 8.576 17.736C8.128 16.584 7.904 15.368 7.904 14.088C7.904 12.392 8.288 10.936 9.056 9.72C9.856 8.504 10.896 7.496 12.176 6.696C13.456 5.896 14.832 5.304 16.304 4.92C17.776 4.536 19.184 4.344 20.528 4.344C22.8 4.344 24.608 4.632 25.952 5.208C27.296 5.752 28.32 6.2 29.024 6.552C29.28 6.68 29.568 6.824 29.888 6.984C30.208 7.144 30.448 7.224 30.608 7.224C31.056 7.224 31.584 6.376 32.192 4.68H33.152ZM39.026 28.92C40.05 28.44 41.058 27.864 42.05 27.192C43.042 26.52 43.954 25.784 44.786 24.984C46.066 23.736 47.106 22.312 47.906 20.712C48.738 19.112 49.154 17.384 49.154 15.528C49.154 15.08 49.09 14.776 48.962 14.616C48.834 14.424 48.642 14.328 48.386 14.328C47.746 14.328 47.042 14.696 46.274 15.432C45.538 16.136 44.802 17.096 44.066 18.312C43.33 19.496 42.658 20.84 42.05 22.344C41.474 23.848 40.994 25.4 40.61 27C40.258 28.568 40.082 30.088 40.082 31.56C40.082 33.416 40.45 34.664 41.186 35.304C41.922 35.912 42.882 36.216 44.066 36.216C44.706 36.216 45.666 35.976 46.946 35.496C48.226 35.016 49.506 34.136 50.786 32.856L51.554 33.24C50.85 34.296 49.922 35.32 48.77 36.312C47.618 37.304 46.258 38.12 44.69 38.76C43.122 39.368 41.362 39.672 39.41 39.672C37.906 39.672 36.514 39.416 35.234 38.904C33.986 38.392 32.978 37.64 32.21 36.648C31.474 35.624 31.106 34.376 31.106 32.904C31.106 31.016 31.394 29.144 31.97 27.288C32.578 25.432 33.426 23.672 34.514 22.008C35.602 20.344 36.898 18.872 38.402 17.592C39.938 16.28 41.634 15.256 43.49 14.52C45.346 13.784 47.33 13.416 49.442 13.416C51.138 13.416 52.546 13.768 53.666 14.472C54.818 15.144 55.394 16.2 55.394 17.64C55.394 18.856 55.074 20.008 54.434 21.096C53.794 22.152 52.914 23.128 51.794 24.024C50.674 24.888 49.41 25.672 48.002 26.376C46.594 27.08 45.106 27.688 43.538 28.2C42.002 28.712 40.482 29.112 38.978 29.4L39.026 28.92ZM63.7025 39H55.2065L61.0625 18.168C61.2545 17.432 61.3185 16.92 61.2545 16.632C61.1905 16.312 60.9825 16.152 60.6305 16.152C60.1505 16.152 59.7025 16.376 59.2865 16.824C58.8705 17.24 58.4385 18.024 57.9905 19.176L56.8865 22.104H55.9745L57.3185 18.36C57.7665 17.144 58.3265 16.184 58.9985 15.48C59.7025 14.744 60.5185 14.216 61.4465 13.896C62.3745 13.576 63.3825 13.416 64.4705 13.416C65.5585 13.416 66.4225 13.624 67.0625 14.04C67.7025 14.424 68.1665 14.952 68.4545 15.624C68.7425 16.296 68.8865 17.032 68.8865 17.832C68.9185 18.6 68.8385 19.368 68.6465 20.136L63.7025 39ZM75.9425 14.376C75.3345 14.376 74.6785 14.472 73.9745 14.664C73.3025 14.856 72.5825 15.352 71.8145 16.152C71.0785 16.92 70.2785 18.168 69.4145 19.896C68.5825 21.624 67.6865 24.024 66.7265 27.096C65.7665 30.168 64.7585 34.088 63.7025 38.856L64.7105 32.136C65.6705 28.392 66.5505 25.32 67.3505 22.92C68.1505 20.488 68.9505 18.584 69.7505 17.208C70.5505 15.8 71.4305 14.824 72.3905 14.28C73.3505 13.704 74.4705 13.416 75.7505 13.416C77.2545 13.416 78.4065 13.864 79.2065 14.76C80.0065 15.656 80.4065 16.76 80.4065 18.072C80.4065 19.128 80.1665 20.12 79.6865 21.048C79.2385 21.944 78.5985 22.68 77.7665 23.256C76.9665 23.8 76.0385 24.072 74.9825 24.072C73.7985 24.072 72.9025 23.768 72.2945 23.16C71.6865 22.552 71.3825 21.656 71.3825 20.472C71.3825 19.512 71.6225 18.616 72.1025 17.784C72.5825 16.952 73.2225 16.248 74.0225 15.672C74.8225 15.064 75.6865 14.68 76.6145 14.52C76.5185 14.488 76.4065 14.456 76.2785 14.424C76.1825 14.392 76.0705 14.376 75.9425 14.376ZM86.3229 28.92C87.3469 28.44 88.3549 27.864 89.3469 27.192C90.3389 26.52 91.2509 25.784 92.0829 24.984C93.3629 23.736 94.4029 22.312 95.2029 20.712C96.0349 19.112 96.4509 17.384 96.4509 15.528C96.4509 15.08 96.3869 14.776 96.2589 14.616C96.1309 14.424 95.9389 14.328 95.6829 14.328C95.0429 14.328 94.3389 14.696 93.5709 15.432C92.8349 16.136 92.0989 17.096 91.3629 18.312C90.6269 19.496 89.9549 20.84 89.3469 22.344C88.7709 23.848 88.2909 25.4 87.9069 27C87.5549 28.568 87.3789 30.088 87.3789 31.56C87.3789 33.416 87.7469 34.664 88.4829 35.304C89.2189 35.912 90.1789 36.216 91.3629 36.216C92.0029 36.216 92.9629 35.976 94.2429 35.496C95.5229 35.016 96.8029 34.136 98.0829 32.856L98.8509 33.24C98.1469 34.296 97.2189 35.32 96.0669 36.312C94.9149 37.304 93.5549 38.12 91.9869 38.76C90.4189 39.368 88.6589 39.672 86.7069 39.672C85.2029 39.672 83.8109 39.416 82.5309 38.904C81.2829 38.392 80.2749 37.64 79.5069 36.648C78.7709 35.624 78.4029 34.376 78.4029 32.904C78.4029 31.016 78.6909 29.144 79.2669 27.288C79.8749 25.432 80.7229 23.672 81.8109 22.008C82.8989 20.344 84.1949 18.872 85.6989 17.592C87.2349 16.28 88.9309 15.256 90.7869 14.52C92.6429 13.784 94.6269 13.416 96.7389 13.416C98.4349 13.416 99.8429 13.768 100.963 14.472C102.115 15.144 102.691 16.2 102.691 17.64C102.691 18.856 102.371 20.008 101.731 21.096C101.091 22.152 100.211 23.128 99.0909 24.024C97.9709 24.888 96.7069 25.672 95.2989 26.376C93.8909 27.08 92.4029 27.688 90.8349 28.2C89.2989 28.712 87.7789 29.112 86.2749 29.4L86.3229 28.92ZM110.471 34.92C110.247 35.688 110.247 36.216 110.471 36.504C110.695 36.792 110.951 36.936 111.239 36.936C111.399 36.936 111.719 36.792 112.199 36.504C112.679 36.184 113.175 35.32 113.687 33.912L114.695 31.224H115.607L114.407 34.728C113.927 36.104 113.287 37.144 112.487 37.848C111.719 38.552 110.903 39.032 110.039 39.288C109.175 39.544 108.359 39.672 107.591 39.672C106.567 39.672 105.671 39.496 104.903 39.144C104.167 38.792 103.591 38.28 103.175 37.608C102.759 36.904 102.535 36.04 102.503 35.016C102.471 33.992 102.663 32.792 103.079 31.416L110.423 6.984C110.743 5.896 110.711 5.096 110.327 4.584C109.943 4.072 108.967 3.816 107.399 3.816L107.735 2.808C110.359 2.776 112.679 2.6 114.695 2.28C116.743 1.928 118.711 1.448 120.599 0.839999L110.471 34.92ZM136.315 22.008C135.067 25.752 133.899 28.792 132.811 31.128C131.723 33.432 130.651 35.208 129.595 36.456C128.571 37.672 127.499 38.52 126.379 39C125.291 39.448 124.107 39.672 122.827 39.672C121.547 39.672 120.523 39.4 119.755 38.856C118.987 38.312 118.523 37.512 118.363 36.456C118.235 35.368 118.427 34.024 118.939 32.424L123.595 18.168C123.915 17.24 123.947 16.68 123.691 16.488C123.467 16.264 123.243 16.152 123.019 16.152C122.731 16.152 122.363 16.328 121.915 16.68C121.467 17 120.987 17.832 120.475 19.176L119.467 21.864H118.555L119.755 18.36C120.235 17.016 120.843 15.992 121.579 15.288C122.347 14.584 123.163 14.104 124.027 13.848C124.923 13.56 125.787 13.416 126.619 13.416C128.059 13.416 129.211 13.72 130.075 14.328C130.939 14.904 131.467 15.8 131.659 17.016C131.851 18.232 131.627 19.784 130.987 21.672L126.859 34.104C126.283 35.832 126.315 36.696 126.955 36.696C127.467 36.696 128.075 36.264 128.779 35.4C129.483 34.536 130.235 33.352 131.035 31.848C131.835 30.344 132.635 28.632 133.435 26.712C134.235 24.76 135.003 22.728 135.739 20.616C136.475 18.472 137.115 16.344 137.659 14.232L136.315 22.008ZM140.299 34.92C140.075 35.656 139.979 36.184 140.011 36.504C140.075 36.792 140.315 36.936 140.731 36.936C141.211 36.936 141.659 36.728 142.075 36.312C142.523 35.864 142.955 35.064 143.371 33.912L144.475 30.984H145.387L144.043 34.728C143.627 35.912 143.051 36.872 142.315 37.608C141.611 38.344 140.811 38.872 139.915 39.192C139.051 39.512 138.139 39.672 137.179 39.672C136.059 39.672 135.147 39.496 134.443 39.144C133.771 38.824 133.259 38.376 132.907 37.8C132.523 37.16 132.331 36.424 132.331 35.592C132.363 34.728 132.491 33.848 132.715 32.952L137.659 14.088C139.323 14.056 140.875 13.992 142.315 13.896C143.755 13.8 145.099 13.64 146.347 13.416L140.299 34.92ZM166.18 34.776C166.34 35.608 166.548 36.184 166.804 36.504C167.06 36.824 167.396 36.984 167.812 36.984C168.228 36.984 168.644 36.744 169.06 36.264C169.508 35.752 170.004 34.68 170.548 33.048L171.172 31.272H172.084L170.884 34.776C170.436 36.184 169.812 37.24 169.012 37.944C168.212 38.648 167.348 39.112 166.42 39.336C165.492 39.56 164.612 39.672 163.78 39.672C162.116 39.672 160.708 39.336 159.556 38.664C158.436 37.96 157.78 36.664 157.588 34.776L155.668 18.312C155.54 17.48 155.316 16.968 154.996 16.776C154.708 16.552 154.356 16.44 153.94 16.44C153.684 16.44 153.412 16.52 153.124 16.68C152.868 16.808 152.596 17.128 152.308 17.64C152.02 18.152 151.684 18.952 151.3 20.04L150.676 21.816H149.764L150.964 18.312C151.412 16.904 152.036 15.848 152.836 15.144C153.636 14.44 154.516 13.976 155.476 13.752C156.468 13.528 157.412 13.416 158.308 13.416C160.068 13.416 161.46 13.784 162.484 14.52C163.54 15.256 164.18 16.744 164.404 18.984L166.18 34.776ZM167.38 17.112C166.708 18.008 166.116 19 165.604 20.088C165.092 21.176 164.644 22.264 164.26 23.352C163.908 24.44 163.604 25.432 163.348 26.328C163.348 26.328 163.188 26.328 162.868 26.328C162.548 26.296 162.388 26.28 162.388 26.28C162.452 26.024 162.58 25.544 162.772 24.84C162.996 24.104 163.284 23.256 163.636 22.296C164.02 21.304 164.468 20.296 164.98 19.272C165.524 18.216 166.116 17.24 166.756 16.344C167.62 15.16 168.532 14.376 169.492 13.992C170.484 13.608 171.428 13.416 172.324 13.416C173.636 13.416 174.708 13.768 175.54 14.472C176.372 15.176 176.788 16.184 176.788 17.496C176.788 18.744 176.388 19.768 175.588 20.568C174.788 21.368 173.748 21.768 172.468 21.768C171.476 21.768 170.484 21.432 169.492 20.76C168.532 20.088 167.828 18.872 167.38 17.112ZM154.372 35.976C155.396 34.6 156.228 33.064 156.868 31.368C157.54 29.64 158.052 28.104 158.404 26.76C158.404 26.76 158.564 26.776 158.884 26.808C159.204 26.808 159.364 26.808 159.364 26.808C159.14 27.704 158.82 28.744 158.404 29.928C157.988 31.112 157.492 32.312 156.916 33.528C156.372 34.712 155.732 35.784 154.996 36.744C154.1 37.896 153.156 38.664 152.164 39.048C151.204 39.464 150.276 39.672 149.38 39.672C148.004 39.672 146.932 39.336 146.164 38.664C145.364 37.96 144.964 37.016 144.964 35.832C144.964 34.424 145.412 33.32 146.308 32.52C147.172 31.72 148.196 31.32 149.38 31.32C150.66 31.32 151.7 31.752 152.5 32.616C153.332 33.448 153.956 34.568 154.372 35.976ZM183.307 28.92C184.331 28.44 185.339 27.864 186.331 27.192C187.323 26.52 188.235 25.784 189.067 24.984C190.347 23.736 191.387 22.312 192.187 20.712C193.019 19.112 193.435 17.384 193.435 15.528C193.435 15.08 193.371 14.776 193.243 14.616C193.115 14.424 192.923 14.328 192.667 14.328C192.027 14.328 191.323 14.696 190.555 15.432C189.819 16.136 189.083 17.096 188.347 18.312C187.611 19.496 186.939 20.84 186.331 22.344C185.755 23.848 185.275 25.4 184.891 27C184.539 28.568 184.363 30.088 184.363 31.56C184.363 33.416 184.731 34.664 185.467 35.304C186.203 35.912 187.163 36.216 188.347 36.216C188.987 36.216 189.947 35.976 191.227 35.496C192.507 35.016 193.787 34.136 195.067 32.856L195.835 33.24C195.131 34.296 194.203 35.32 193.051 36.312C191.899 37.304 190.539 38.12 188.971 38.76C187.403 39.368 185.643 39.672 183.691 39.672C182.187 39.672 180.795 39.416 179.515 38.904C178.267 38.392 177.259 37.64 176.491 36.648C175.755 35.624 175.387 34.376 175.387 32.904C175.387 31.016 175.675 29.144 176.251 27.288C176.859 25.432 177.707 23.672 178.795 22.008C179.883 20.344 181.179 18.872 182.683 17.592C184.219 16.28 185.915 15.256 187.771 14.52C189.627 13.784 191.611 13.416 193.723 13.416C195.419 13.416 196.827 13.768 197.947 14.472C199.099 15.144 199.675 16.2 199.675 17.64C199.675 18.856 199.355 20.008 198.715 21.096C198.075 22.152 197.195 23.128 196.075 24.024C194.955 24.888 193.691 25.672 192.283 26.376C190.875 27.08 189.387 27.688 187.819 28.2C186.283 28.712 184.763 29.112 183.259 29.4L183.307 28.92Z" fill="white"/>
</svg>
