<svg width="167" height="33" viewBox="0 0 167 33" fill="none" xmlns="http://www.w3.org/2000/svg">
<path d="M27.96 3.4C27.6933 4.09333 27.3333 5.10667 26.88 6.44C26.4267 7.74667 26 9.45333 25.6 11.56H24.8C24.88 11.1867 24.9333 10.8 24.96 10.4C25.0133 10 25.04 9.65333 25.04 9.36C25.04 8.26666 24.8 7.34666 24.32 6.6C23.8667 5.82667 23.2133 5.24 22.36 4.84C21.5067 4.41333 20.48 4.2 19.28 4.2C18.1333 4.2 17.12 4.49333 16.24 5.08C15.3867 5.66667 14.96 6.66667 14.96 8.08C14.96 8.98667 15.1733 9.88 15.6 10.76C16.0267 11.6133 16.5733 12.4667 17.24 13.32C17.9333 14.1733 18.6533 15.04 19.4 15.92C20.1733 16.7733 20.8933 17.6533 21.56 18.56C22.2533 19.44 22.8133 20.3733 23.24 21.36C23.6667 22.3467 23.88 23.3867 23.88 24.48C23.88 25.9467 23.4933 27.2 22.72 28.24C21.9467 29.2533 20.96 30.08 19.76 30.72C18.56 31.36 17.2933 31.8267 15.96 32.12C14.6267 32.4133 13.3867 32.56 12.24 32.56C10.8533 32.56 9.72 32.4933 8.84 32.36C7.96 32.2267 7.2 32.0267 6.56 31.76C5.92 31.4667 5.22667 31.12 4.48 30.72C4.21333 30.56 3.96 30.4267 3.72 30.32C3.48 30.1867 3.28 30.12 3.12 30.12C2.77333 30.12 2.49333 30.2667 2.28 30.56C2.06667 30.8533 1.77333 31.4267 1.4 32.28H0.6C0.84 31.6933 1.09333 31.0133 1.36 30.24C1.62667 29.4667 1.92 28.48 2.24 27.28C2.56 26.0533 2.92 24.52 3.32 22.68H4.12C3.98667 23.08 3.88 23.5867 3.8 24.2C3.74667 24.7867 3.73333 25.32 3.76 25.8C3.84 27.7467 4.45333 29.2133 5.6 30.2C6.74667 31.16 8.30667 31.64 10.28 31.64C12.1467 31.64 13.3867 31.2933 14 30.6C14.64 29.88 14.96 29 14.96 27.96C14.96 26.84 14.76 25.8 14.36 24.84C13.9867 23.8533 13.4933 22.9333 12.88 22.08C12.2667 21.2 11.6133 20.3467 10.92 19.52C10.2533 18.6667 9.61333 17.8133 9 16.96C8.38667 16.1067 7.88 15.2133 7.48 14.28C7.10667 13.32 6.92 12.3067 6.92 11.24C6.92 9.82667 7.24 8.61333 7.88 7.6C8.54667 6.58667 9.41333 5.74667 10.48 5.08C11.5467 4.41333 12.6933 3.92 13.92 3.6C15.1467 3.28 16.32 3.12 17.44 3.12C19.3333 3.12 20.84 3.36 21.96 3.84C23.08 4.29333 23.9333 4.66666 24.52 4.96C24.7333 5.06666 24.9733 5.18666 25.24 5.32C25.5067 5.45333 25.7067 5.52 25.84 5.52C26.2133 5.52 26.6533 4.81333 27.16 3.4H27.96ZM32.855 23.6C33.7083 23.2 34.5483 22.72 35.375 22.16C36.2017 21.6 36.9617 20.9867 37.655 20.32C38.7217 19.28 39.5883 18.0933 40.255 16.76C40.9483 15.4267 41.295 13.9867 41.295 12.44C41.295 12.0667 41.2417 11.8133 41.135 11.68C41.0283 11.52 40.8683 11.44 40.655 11.44C40.1217 11.44 39.535 11.7467 38.895 12.36C38.2817 12.9467 37.6683 13.7467 37.055 14.76C36.4417 15.7467 35.8817 16.8667 35.375 18.12C34.895 19.3733 34.495 20.6667 34.175 22C33.8817 23.3067 33.735 24.5733 33.735 25.8C33.735 27.3467 34.0417 28.3867 34.655 28.92C35.2683 29.4267 36.0683 29.68 37.055 29.68C37.5883 29.68 38.3883 29.48 39.455 29.08C40.5217 28.68 41.5883 27.9467 42.655 26.88L43.295 27.2C42.7083 28.08 41.935 28.9333 40.975 29.76C40.015 30.5867 38.8817 31.2667 37.575 31.8C36.2683 32.3067 34.8017 32.56 33.175 32.56C31.9217 32.56 30.7617 32.3467 29.695 31.92C28.655 31.4933 27.815 30.8667 27.175 30.04C26.5617 29.1867 26.255 28.1467 26.255 26.92C26.255 25.3467 26.495 23.7867 26.975 22.24C27.4817 20.6933 28.1883 19.2267 29.095 17.84C30.0017 16.4533 31.0817 15.2267 32.335 14.16C33.615 13.0667 35.0283 12.2133 36.575 11.6C38.1217 10.9867 39.775 10.68 41.535 10.68C42.9483 10.68 44.1217 10.9733 45.055 11.56C46.015 12.12 46.495 13 46.495 14.2C46.495 15.2133 46.2283 16.1733 45.695 17.08C45.1617 17.96 44.4283 18.7733 43.495 19.52C42.5617 20.24 41.5083 20.8933 40.335 21.48C39.1617 22.0667 37.9217 22.5733 36.615 23C35.335 23.4267 34.0683 23.76 32.815 24L32.855 23.6ZM53.4188 32H46.3388L51.2188 14.64C51.3788 14.0267 51.4321 13.6 51.3788 13.36C51.3254 13.0933 51.1521 12.96 50.8588 12.96C50.4588 12.96 50.0854 13.1467 49.7388 13.52C49.3921 13.8667 49.0321 14.52 48.6588 15.48L47.7388 17.92H46.9788L48.0988 14.8C48.4721 13.7867 48.9388 12.9867 49.4988 12.4C50.0854 11.7867 50.7654 11.3467 51.5388 11.08C52.3121 10.8133 53.1521 10.68 54.0588 10.68C54.9654 10.68 55.6854 10.8533 56.2188 11.2C56.7521 11.52 57.1388 11.96 57.3788 12.52C57.6188 13.08 57.7388 13.6933 57.7388 14.36C57.7654 15 57.6988 15.64 57.5388 16.28L53.4188 32ZM63.6188 11.48C63.1121 11.48 62.5654 11.56 61.9788 11.72C61.4188 11.88 60.8188 12.2933 60.1788 12.96C59.5654 13.6 58.8988 14.64 58.1788 16.08C57.4854 17.52 56.7388 19.52 55.9388 22.08C55.1388 24.64 54.2988 27.9067 53.4188 31.88L54.2588 26.28C55.0588 23.16 55.7921 20.6 56.4588 18.6C57.1254 16.5733 57.7921 14.9867 58.4588 13.84C59.1254 12.6667 59.8588 11.8533 60.6588 11.4C61.4588 10.92 62.3921 10.68 63.4588 10.68C64.7121 10.68 65.6721 11.0533 66.3388 11.8C67.0054 12.5467 67.3387 13.4667 67.3387 14.56C67.3387 15.44 67.1388 16.2667 66.7388 17.04C66.3654 17.7867 65.8321 18.4 65.1388 18.88C64.4721 19.3333 63.6988 19.56 62.8188 19.56C61.8321 19.56 61.0854 19.3067 60.5788 18.8C60.0721 18.2933 59.8188 17.5467 59.8188 16.56C59.8188 15.76 60.0188 15.0133 60.4188 14.32C60.8188 13.6267 61.3521 13.04 62.0188 12.56C62.6854 12.0533 63.4054 11.7333 64.1788 11.6C64.0988 11.5733 64.0054 11.5467 63.8988 11.52C63.8188 11.4933 63.7254 11.48 63.6188 11.48ZM72.2691 23.6C73.1224 23.2 73.9624 22.72 74.7891 22.16C75.6157 21.6 76.3757 20.9867 77.0691 20.32C78.1357 19.28 79.0024 18.0933 79.6691 16.76C80.3624 15.4267 80.7091 13.9867 80.7091 12.44C80.7091 12.0667 80.6557 11.8133 80.5491 11.68C80.4424 11.52 80.2824 11.44 80.0691 11.44C79.5357 11.44 78.9491 11.7467 78.3091 12.36C77.6957 12.9467 77.0824 13.7467 76.4691 14.76C75.8557 15.7467 75.2957 16.8667 74.7891 18.12C74.3091 19.3733 73.9091 20.6667 73.5891 22C73.2957 23.3067 73.1491 24.5733 73.1491 25.8C73.1491 27.3467 73.4557 28.3867 74.0691 28.92C74.6824 29.4267 75.4824 29.68 76.4691 29.68C77.0024 29.68 77.8024 29.48 78.8691 29.08C79.9357 28.68 81.0024 27.9467 82.0691 26.88L82.7091 27.2C82.1224 28.08 81.3491 28.9333 80.3891 29.76C79.4291 30.5867 78.2957 31.2667 76.9891 31.8C75.6824 32.3067 74.2157 32.56 72.5891 32.56C71.3357 32.56 70.1757 32.3467 69.1091 31.92C68.0691 31.4933 67.2291 30.8667 66.5891 30.04C65.9757 29.1867 65.6691 28.1467 65.6691 26.92C65.6691 25.3467 65.9091 23.7867 66.3891 22.24C66.8957 20.6933 67.6024 19.2267 68.5091 17.84C69.4157 16.4533 70.4957 15.2267 71.7491 14.16C73.0291 13.0667 74.4424 12.2133 75.9891 11.6C77.5357 10.9867 79.1891 10.68 80.9491 10.68C82.3624 10.68 83.5357 10.9733 84.4691 11.56C85.4291 12.12 85.9091 13 85.9091 14.2C85.9091 15.2133 85.6424 16.1733 85.1091 17.08C84.5757 17.96 83.8424 18.7733 82.9091 19.52C81.9757 20.24 80.9224 20.8933 79.7491 21.48C78.5757 22.0667 77.3357 22.5733 76.0291 23C74.7491 23.4267 73.4824 23.76 72.2291 24L72.2691 23.6ZM92.3928 28.6C92.2061 29.24 92.2061 29.68 92.3928 29.92C92.5795 30.16 92.7928 30.28 93.0328 30.28C93.1661 30.28 93.4328 30.16 93.8328 29.92C94.2328 29.6533 94.6461 28.9333 95.0728 27.76L95.9128 25.52H96.6728L95.6728 28.44C95.2728 29.5867 94.7395 30.4533 94.0728 31.04C93.4328 31.6267 92.7528 32.0267 92.0328 32.24C91.3128 32.4533 90.6328 32.56 89.9928 32.56C89.1395 32.56 88.3928 32.4133 87.7528 32.12C87.1395 31.8267 86.6595 31.4 86.3128 30.84C85.9661 30.2533 85.7795 29.5333 85.7528 28.68C85.7261 27.8267 85.8861 26.8267 86.2328 25.68L92.3528 5.32C92.6195 4.41333 92.5928 3.74667 92.2728 3.32C91.9528 2.89333 91.1395 2.68 89.8328 2.68L90.1128 1.84C92.2995 1.81333 94.2328 1.66666 95.9128 1.4C97.6195 1.10667 99.2595 0.706666 100.833 0.199999L92.3928 28.6ZM113.929 17.84C112.889 20.96 111.916 23.4933 111.009 25.44C110.102 27.36 109.209 28.84 108.329 29.88C107.476 30.8933 106.582 31.6 105.649 32C104.742 32.3733 103.756 32.56 102.689 32.56C101.622 32.56 100.769 32.3333 100.129 31.88C99.4891 31.4267 99.1024 30.76 98.9691 29.88C98.8624 28.9733 99.0224 27.8533 99.4491 26.52L103.329 14.64C103.596 13.8667 103.622 13.4 103.409 13.24C103.222 13.0533 103.036 12.96 102.849 12.96C102.609 12.96 102.302 13.1067 101.929 13.4C101.556 13.6667 101.156 14.36 100.729 15.48L99.8891 17.72H99.1291L100.129 14.8C100.529 13.68 101.036 12.8267 101.649 12.24C102.289 11.6533 102.969 11.2533 103.689 11.04C104.436 10.8 105.156 10.68 105.849 10.68C107.049 10.68 108.009 10.9333 108.729 11.44C109.449 11.92 109.889 12.6667 110.049 13.68C110.209 14.6933 110.022 15.9867 109.489 17.56L106.049 27.92C105.569 29.36 105.596 30.08 106.129 30.08C106.556 30.08 107.062 29.72 107.649 29C108.236 28.28 108.862 27.2933 109.529 26.04C110.196 24.7867 110.862 23.36 111.529 21.76C112.196 20.1333 112.836 18.44 113.449 16.68C114.062 14.8933 114.596 13.12 115.049 11.36L113.929 17.84ZM117.249 28.6C117.062 29.2133 116.982 29.6533 117.009 29.92C117.062 30.16 117.262 30.28 117.609 30.28C118.009 30.28 118.382 30.1067 118.729 29.76C119.102 29.3867 119.462 28.72 119.809 27.76L120.729 25.32H121.489L120.369 28.44C120.022 29.4267 119.542 30.2267 118.929 30.84C118.342 31.4533 117.676 31.8933 116.929 32.16C116.209 32.4267 115.449 32.56 114.649 32.56C113.716 32.56 112.956 32.4133 112.369 32.12C111.809 31.8533 111.382 31.48 111.089 31C110.769 30.4667 110.609 29.8533 110.609 29.16C110.636 28.44 110.742 27.7067 110.929 26.96L115.049 11.24C116.436 11.2133 117.729 11.16 118.929 11.08C120.129 11 121.249 10.8667 122.289 10.68L117.249 28.6ZM138.817 28.48C138.95 29.1733 139.123 29.6533 139.337 29.92C139.55 30.1867 139.83 30.32 140.177 30.32C140.523 30.32 140.87 30.12 141.217 29.72C141.59 29.2933 142.003 28.4 142.457 27.04L142.977 25.56H143.737L142.737 28.48C142.363 29.6533 141.843 30.5333 141.177 31.12C140.51 31.7067 139.79 32.0933 139.017 32.28C138.243 32.4667 137.51 32.56 136.817 32.56C135.43 32.56 134.257 32.28 133.297 31.72C132.363 31.1333 131.817 30.0533 131.657 28.48L130.057 14.76C129.95 14.0667 129.763 13.64 129.497 13.48C129.257 13.2933 128.963 13.2 128.617 13.2C128.403 13.2 128.177 13.2667 127.937 13.4C127.723 13.5067 127.497 13.7733 127.257 14.2C127.017 14.6267 126.737 15.2933 126.417 16.2L125.897 17.68H125.137L126.137 14.76C126.51 13.5867 127.03 12.7067 127.697 12.12C128.363 11.5333 129.097 11.1467 129.897 10.96C130.723 10.7733 131.51 10.68 132.257 10.68C133.723 10.68 134.883 10.9867 135.737 11.6C136.617 12.2133 137.15 13.4533 137.337 15.32L138.817 28.48ZM139.817 13.76C139.257 14.5067 138.763 15.3333 138.337 16.24C137.91 17.1467 137.537 18.0533 137.217 18.96C136.923 19.8667 136.67 20.6933 136.457 21.44C136.457 21.44 136.323 21.44 136.057 21.44C135.79 21.4133 135.657 21.4 135.657 21.4C135.71 21.1867 135.817 20.7867 135.977 20.2C136.163 19.5867 136.403 18.88 136.697 18.08C137.017 17.2533 137.39 16.4133 137.817 15.56C138.27 14.68 138.763 13.8667 139.297 13.12C140.017 12.1333 140.777 11.48 141.577 11.16C142.403 10.84 143.19 10.68 143.937 10.68C145.03 10.68 145.923 10.9733 146.617 11.56C147.31 12.1467 147.657 12.9867 147.657 14.08C147.657 15.12 147.323 15.9733 146.657 16.64C145.99 17.3067 145.123 17.64 144.057 17.64C143.23 17.64 142.403 17.36 141.577 16.8C140.777 16.24 140.19 15.2267 139.817 13.76ZM128.977 29.48C129.83 28.3333 130.523 27.0533 131.057 25.64C131.617 24.2 132.043 22.92 132.337 21.8C132.337 21.8 132.47 21.8133 132.737 21.84C133.003 21.84 133.137 21.84 133.137 21.84C132.95 22.5867 132.683 23.4533 132.337 24.44C131.99 25.4267 131.577 26.4267 131.097 27.44C130.643 28.4267 130.11 29.32 129.497 30.12C128.75 31.08 127.963 31.72 127.137 32.04C126.337 32.3867 125.563 32.56 124.817 32.56C123.67 32.56 122.777 32.28 122.137 31.72C121.47 31.1333 121.137 30.3467 121.137 29.36C121.137 28.1867 121.51 27.2667 122.257 26.6C122.977 25.9333 123.83 25.6 124.817 25.6C125.883 25.6 126.75 25.96 127.417 26.68C128.11 27.3733 128.63 28.3067 128.977 29.48ZM153.089 23.6C153.943 23.2 154.783 22.72 155.609 22.16C156.436 21.6 157.196 20.9867 157.889 20.32C158.956 19.28 159.823 18.0933 160.489 16.76C161.183 15.4267 161.529 13.9867 161.529 12.44C161.529 12.0667 161.476 11.8133 161.369 11.68C161.263 11.52 161.103 11.44 160.889 11.44C160.356 11.44 159.769 11.7467 159.129 12.36C158.516 12.9467 157.903 13.7467 157.289 14.76C156.676 15.7467 156.116 16.8667 155.609 18.12C155.129 19.3733 154.729 20.6667 154.409 22C154.116 23.3067 153.969 24.5733 153.969 25.8C153.969 27.3467 154.276 28.3867 154.889 28.92C155.503 29.4267 156.303 29.68 157.289 29.68C157.823 29.68 158.623 29.48 159.689 29.08C160.756 28.68 161.823 27.9467 162.889 26.88L163.529 27.2C162.943 28.08 162.169 28.9333 161.209 29.76C160.249 30.5867 159.116 31.2667 157.809 31.8C156.503 32.3067 155.036 32.56 153.409 32.56C152.156 32.56 150.996 32.3467 149.929 31.92C148.889 31.4933 148.049 30.8667 147.409 30.04C146.796 29.1867 146.489 28.1467 146.489 26.92C146.489 25.3467 146.729 23.7867 147.209 22.24C147.716 20.6933 148.423 19.2267 149.329 17.84C150.236 16.4533 151.316 15.2267 152.569 14.16C153.849 13.0667 155.263 12.2133 156.809 11.6C158.356 10.9867 160.009 10.68 161.769 10.68C163.183 10.68 164.356 10.9733 165.289 11.56C166.249 12.12 166.729 13 166.729 14.2C166.729 15.2133 166.463 16.1733 165.929 17.08C165.396 17.96 164.663 18.7733 163.729 19.52C162.796 20.24 161.743 20.8933 160.569 21.48C159.396 22.0667 158.156 22.5733 156.849 23C155.569 23.4267 154.303 23.76 153.049 24L153.089 23.6Z" fill="#2DD1C7"/>
</svg>
