<svg width="200" height="200" viewBox="0 0 200 200" fill="none" xmlns="http://www.w3.org/2000/svg">
<g clip-path="url(#clip0_7_560)">
<mask id="mask0_7_560" style="mask-type:luminance" maskUnits="userSpaceOnUse" x="0" y="0" width="200" height="200">
<path d="M0.0795898 0.158691H200V200H0.0795898V0.158691Z" fill="white"/>
</mask>
<g mask="url(#mask0_7_560)">
<path d="M0.065918 99.6826C0.065918 44.7101 44.6472 0.145248 99.6406 0.145248C154.635 0.145248 199.215 44.7101 199.215 99.6826C199.215 154.655 154.635 199.22 99.6406 199.22C44.6472 199.22 0.065918 154.655 0.065918 99.6826Z" fill="#2DD1C7" stroke="#2DD1C7"/>
</g>
<path d="M61.6504 79.1624C61.6504 58.1891 78.6588 41.1857 99.6403 41.1857C120.623 41.1857 137.63 58.1891 137.63 79.1624C137.63 100.136 120.623 117.138 99.6403 117.138C78.6588 117.138 61.6504 100.136 61.6504 79.1624Z" fill="white" stroke="#2DD1C7"/>
<path d="M168.064 167.825L168.07 167.834L169.663 170.45C151.675 188.237 126.941 199.22 99.6406 199.22C72.3864 199.22 47.6908 188.275 29.7101 170.543L31.1034 168.026L31.1062 168.021L31.1739 167.902C31.1742 167.902 31.1746 167.901 31.1749 167.901C44.8315 144.301 70.3747 128.399 99.6406 128.399C128.876 128.399 154.395 144.267 168.064 167.825Z" fill="white" stroke="#2DD1C7"/>
</g>
<defs>
<clipPath id="clip0_7_560">
<rect width="200" height="200" fill="white"/>
</clipPath>
</defs>
</svg>
